<mxfile host="65bd71144e">
    <diagram id="nb4OCqTXy1IpJ0fphuQ5" name="第 1 页">
        <mxGraphModel dx="1118" dy="790" grid="1" gridSize="10" guides="1" tooltips="1" connect="1" arrows="1" fold="1" page="1" pageScale="1" pageWidth="827" pageHeight="1169" math="0" shadow="0">
            <root>
                <mxCell id="0"/>
                <mxCell id="1" parent="0"/>
                <mxCell id="2" value="" style="rounded=0;whiteSpace=wrap;html=1;" vertex="1" parent="1">
                    <mxGeometry x="140" y="230" width="230" height="450" as="geometry"/>
                </mxCell>
                <mxCell id="3" value="ECStack调用栈" style="text;html=1;align=center;verticalAlign=middle;resizable=0;points=[];autosize=1;strokeColor=none;" vertex="1" parent="1">
                    <mxGeometry x="130" y="200" width="100" height="20" as="geometry"/>
                </mxCell>
                <mxCell id="4" value="" style="rounded=1;whiteSpace=wrap;html=1;" vertex="1" parent="1">
                    <mxGeometry x="400" y="230" width="616" height="380" as="geometry"/>
                </mxCell>
                <mxCell id="5" value="堆内存" style="text;html=1;align=center;verticalAlign=middle;resizable=0;points=[];autosize=1;strokeColor=none;" vertex="1" parent="1">
                    <mxGeometry x="430" y="210" width="50" height="20" as="geometry"/>
                </mxCell>
                <mxCell id="6" value="" style="whiteSpace=wrap;html=1;" vertex="1" parent="1">
                    <mxGeometry x="160" y="550" width="180" height="100" as="geometry"/>
                </mxCell>
                <mxCell id="7" value="GEC全局执行上下文" style="text;html=1;align=center;verticalAlign=middle;resizable=0;points=[];autosize=1;strokeColor=none;" vertex="1" parent="1">
                    <mxGeometry x="180" y="520" width="130" height="20" as="geometry"/>
                </mxCell>
                <mxCell id="8" value="string&lt;br&gt;settimeout&lt;br&gt;window&lt;br&gt;foo: 0xa00&lt;br&gt;fn：undefined-&amp;gt;0xb00" style="whiteSpace=wrap;html=1;" vertex="1" parent="1">
                    <mxGeometry x="430" y="280" width="130" height="90" as="geometry"/>
                </mxCell>
                <mxCell id="9" value="go对象" style="text;html=1;align=center;verticalAlign=middle;resizable=0;points=[];autosize=1;strokeColor=none;" vertex="1" parent="1">
                    <mxGeometry x="450" y="250" width="50" height="20" as="geometry"/>
                </mxCell>
                <mxCell id="10" value="foo函数对象0xa00" style="text;html=1;align=center;verticalAlign=middle;resizable=0;points=[];autosize=1;strokeColor=none;" vertex="1" parent="1">
                    <mxGeometry x="574" y="340" width="110" height="20" as="geometry"/>
                </mxCell>
                <mxCell id="11" value="" style="whiteSpace=wrap;html=1;" vertex="1" parent="1">
                    <mxGeometry x="620" y="380" width="120" height="60" as="geometry"/>
                </mxCell>
                <mxCell id="12" value="vo:go" style="rounded=1;whiteSpace=wrap;html=1;" vertex="1" parent="1">
                    <mxGeometry x="170" y="560" width="90" height="30" as="geometry"/>
                </mxCell>
                <mxCell id="13" value="开始执行代码" style="whiteSpace=wrap;html=1;" vertex="1" parent="1">
                    <mxGeometry x="170" y="600" width="100" height="40" as="geometry"/>
                </mxCell>
                <mxCell id="14" value="执行完后这个就被删除了" style="whiteSpace=wrap;html=1;" vertex="1" parent="1">
                    <mxGeometry x="160" y="390" width="170" height="130" as="geometry"/>
                </mxCell>
                <mxCell id="15" value="FEC函数执行上下文" style="text;html=1;align=center;verticalAlign=middle;resizable=0;points=[];autosize=1;strokeColor=none;" vertex="1" parent="1">
                    <mxGeometry x="160" y="360" width="120" height="20" as="geometry"/>
                </mxCell>
                <mxCell id="16" value="bar:&lt;span style=&quot;font-family: &amp;#34;helvetica&amp;#34;&quot;&gt;0xb00&lt;/span&gt;" style="whiteSpace=wrap;html=1;" vertex="1" parent="1">
                    <mxGeometry x="620" y="270" width="120" height="60" as="geometry"/>
                </mxCell>
                <mxCell id="17" value="ao对象" style="text;html=1;align=center;verticalAlign=middle;resizable=0;points=[];autosize=1;strokeColor=none;" vertex="1" parent="1">
                    <mxGeometry x="620" y="250" width="50" height="20" as="geometry"/>
                </mxCell>
                <mxCell id="18" value="&lt;span style=&quot;color: rgb(240 , 240 , 240) ; font-family: &amp;#34;helvetica&amp;#34; ; font-size: 12px ; font-style: normal ; font-weight: 400 ; letter-spacing: normal ; text-align: center ; text-indent: 0px ; text-transform: none ; word-spacing: 0px ; background-color: rgb(42 , 42 , 42) ; display: inline ; float: none&quot;&gt;bar函数对象0xb00&lt;/span&gt;" style="text;whiteSpace=wrap;html=1;" vertex="1" parent="1">
                    <mxGeometry x="454" y="415" width="120" height="30" as="geometry"/>
                </mxCell>
                <mxCell id="19" value="" style="whiteSpace=wrap;html=1;" vertex="1" parent="1">
                    <mxGeometry x="440" y="445" width="120" height="60" as="geometry"/>
                </mxCell>
                <mxCell id="20" value="" style="whiteSpace=wrap;html=1;" vertex="1" parent="1">
                    <mxGeometry x="780" y="270" width="120" height="60" as="geometry"/>
                </mxCell>
                <mxCell id="21" value="ao对象" style="text;html=1;align=center;verticalAlign=middle;resizable=0;points=[];autosize=1;strokeColor=none;" vertex="1" parent="1">
                    <mxGeometry x="780" y="250" width="50" height="20" as="geometry"/>
                </mxCell>
            </root>
        </mxGraphModel>
    </diagram>
</mxfile>